%TF.GenerationSoftware,KiCad,Pcbnew,(5.1.12-1-10_14)*%
%TF.CreationDate,2021-12-10T03:56:51-06:00*%
%TF.ProjectId,xlr_breakout_board,786c725f-6272-4656-916b-6f75745f626f,0.0.1*%
%TF.SameCoordinates,Original*%
%TF.FileFunction,Legend,Bot*%
%TF.FilePolarity,Positive*%
%FSLAX46Y46*%
G04 Gerber Fmt 4.6, Leading zero omitted, Abs format (unit mm)*
G04 Created by KiCad (PCBNEW (5.1.12-1-10_14)) date 2021-12-10 03:56:51*
%MOMM*%
%LPD*%
G01*
G04 APERTURE LIST*
%ADD10C,0.127000*%
%ADD11C,0.150000*%
G04 APERTURE END LIST*
D10*
X8490857Y14641285D02*
X8309428Y14133285D01*
X8128000Y14641285D01*
X7692571Y14895285D02*
X7620000Y14895285D01*
X7547428Y14859000D01*
X7511142Y14822714D01*
X7474857Y14750142D01*
X7438571Y14605000D01*
X7438571Y14423571D01*
X7474857Y14278428D01*
X7511142Y14205857D01*
X7547428Y14169571D01*
X7620000Y14133285D01*
X7692571Y14133285D01*
X7765142Y14169571D01*
X7801428Y14205857D01*
X7837714Y14278428D01*
X7874000Y14423571D01*
X7874000Y14605000D01*
X7837714Y14750142D01*
X7801428Y14822714D01*
X7765142Y14859000D01*
X7692571Y14895285D01*
X7112000Y14205857D02*
X7075714Y14169571D01*
X7112000Y14133285D01*
X7148285Y14169571D01*
X7112000Y14205857D01*
X7112000Y14133285D01*
X6604000Y14895285D02*
X6531428Y14895285D01*
X6458857Y14859000D01*
X6422571Y14822714D01*
X6386285Y14750142D01*
X6350000Y14605000D01*
X6350000Y14423571D01*
X6386285Y14278428D01*
X6422571Y14205857D01*
X6458857Y14169571D01*
X6531428Y14133285D01*
X6604000Y14133285D01*
X6676571Y14169571D01*
X6712857Y14205857D01*
X6749142Y14278428D01*
X6785428Y14423571D01*
X6785428Y14605000D01*
X6749142Y14750142D01*
X6712857Y14822714D01*
X6676571Y14859000D01*
X6604000Y14895285D01*
X6023428Y14205857D02*
X5987142Y14169571D01*
X6023428Y14133285D01*
X6059714Y14169571D01*
X6023428Y14205857D01*
X6023428Y14133285D01*
X5261428Y14133285D02*
X5696857Y14133285D01*
X5479142Y14133285D02*
X5479142Y14895285D01*
X5551714Y14786428D01*
X5624285Y14713857D01*
X5696857Y14677571D01*
D11*
X8572285Y19977619D02*
X7905619Y18977619D01*
X7905619Y19977619D02*
X8572285Y18977619D01*
X7048476Y18977619D02*
X7524666Y18977619D01*
X7524666Y19977619D01*
X6143714Y18977619D02*
X6477047Y19453809D01*
X6715142Y18977619D02*
X6715142Y19977619D01*
X6334190Y19977619D01*
X6238952Y19930000D01*
X6191333Y19882380D01*
X6143714Y19787142D01*
X6143714Y19644285D01*
X6191333Y19549047D01*
X6238952Y19501428D01*
X6334190Y19453809D01*
X6715142Y19453809D01*
X5810380Y19977619D02*
X5191333Y19977619D01*
X5524666Y19596666D01*
X5381809Y19596666D01*
X5286571Y19549047D01*
X5238952Y19501428D01*
X5191333Y19406190D01*
X5191333Y19168095D01*
X5238952Y19072857D01*
X5286571Y19025238D01*
X5381809Y18977619D01*
X5667523Y18977619D01*
X5762761Y19025238D01*
X5810380Y19072857D01*
X9572285Y17851428D02*
X9429428Y17803809D01*
X9381809Y17756190D01*
X9334190Y17660952D01*
X9334190Y17518095D01*
X9381809Y17422857D01*
X9429428Y17375238D01*
X9524666Y17327619D01*
X9905619Y17327619D01*
X9905619Y18327619D01*
X9572285Y18327619D01*
X9477047Y18280000D01*
X9429428Y18232380D01*
X9381809Y18137142D01*
X9381809Y18041904D01*
X9429428Y17946666D01*
X9477047Y17899047D01*
X9572285Y17851428D01*
X9905619Y17851428D01*
X8905619Y17327619D02*
X8905619Y17994285D01*
X8905619Y17803809D02*
X8858000Y17899047D01*
X8810380Y17946666D01*
X8715142Y17994285D01*
X8619904Y17994285D01*
X7905619Y17375238D02*
X8000857Y17327619D01*
X8191333Y17327619D01*
X8286571Y17375238D01*
X8334190Y17470476D01*
X8334190Y17851428D01*
X8286571Y17946666D01*
X8191333Y17994285D01*
X8000857Y17994285D01*
X7905619Y17946666D01*
X7857999Y17851428D01*
X7857999Y17756190D01*
X8334190Y17660952D01*
X7000857Y17327619D02*
X7000857Y17851428D01*
X7048476Y17946666D01*
X7143714Y17994285D01*
X7334190Y17994285D01*
X7429428Y17946666D01*
X7000857Y17375238D02*
X7096095Y17327619D01*
X7334190Y17327619D01*
X7429428Y17375238D01*
X7477047Y17470476D01*
X7477047Y17565714D01*
X7429428Y17660952D01*
X7334190Y17708571D01*
X7096095Y17708571D01*
X7000857Y17756190D01*
X6524666Y17327619D02*
X6524666Y18327619D01*
X6429428Y17708571D02*
X6143714Y17327619D01*
X6143714Y17994285D02*
X6524666Y17613333D01*
X5572285Y17327619D02*
X5667523Y17375238D01*
X5715142Y17422857D01*
X5762761Y17518095D01*
X5762761Y17803809D01*
X5715142Y17899047D01*
X5667523Y17946666D01*
X5572285Y17994285D01*
X5429428Y17994285D01*
X5334190Y17946666D01*
X5286571Y17899047D01*
X5238952Y17803809D01*
X5238952Y17518095D01*
X5286571Y17422857D01*
X5334190Y17375238D01*
X5429428Y17327619D01*
X5572285Y17327619D01*
X4381809Y17994285D02*
X4381809Y17327619D01*
X4810380Y17994285D02*
X4810380Y17470476D01*
X4762761Y17375238D01*
X4667523Y17327619D01*
X4524666Y17327619D01*
X4429428Y17375238D01*
X4381809Y17422857D01*
X4048476Y17994285D02*
X3667523Y17994285D01*
X3905619Y18327619D02*
X3905619Y17470476D01*
X3857999Y17375238D01*
X3762761Y17327619D01*
X3667523Y17327619D01*
X8453238Y16201428D02*
X8310380Y16153809D01*
X8262761Y16106190D01*
X8215142Y16010952D01*
X8215142Y15868095D01*
X8262761Y15772857D01*
X8310380Y15725238D01*
X8405619Y15677619D01*
X8786571Y15677619D01*
X8786571Y16677619D01*
X8453238Y16677619D01*
X8358000Y16630000D01*
X8310380Y16582380D01*
X8262761Y16487142D01*
X8262761Y16391904D01*
X8310380Y16296666D01*
X8358000Y16249047D01*
X8453238Y16201428D01*
X8786571Y16201428D01*
X7643714Y15677619D02*
X7738952Y15725238D01*
X7786571Y15772857D01*
X7834190Y15868095D01*
X7834190Y16153809D01*
X7786571Y16249047D01*
X7738952Y16296666D01*
X7643714Y16344285D01*
X7500857Y16344285D01*
X7405619Y16296666D01*
X7358000Y16249047D01*
X7310380Y16153809D01*
X7310380Y15868095D01*
X7358000Y15772857D01*
X7405619Y15725238D01*
X7500857Y15677619D01*
X7643714Y15677619D01*
X6453238Y15677619D02*
X6453238Y16201428D01*
X6500857Y16296666D01*
X6596095Y16344285D01*
X6786571Y16344285D01*
X6881809Y16296666D01*
X6453238Y15725238D02*
X6548476Y15677619D01*
X6786571Y15677619D01*
X6881809Y15725238D01*
X6929428Y15820476D01*
X6929428Y15915714D01*
X6881809Y16010952D01*
X6786571Y16058571D01*
X6548476Y16058571D01*
X6453238Y16106190D01*
X5977047Y15677619D02*
X5977047Y16344285D01*
X5977047Y16153809D02*
X5929428Y16249047D01*
X5881809Y16296666D01*
X5786571Y16344285D01*
X5691333Y16344285D01*
X4929428Y15677619D02*
X4929428Y16677619D01*
X4929428Y15725238D02*
X5024666Y15677619D01*
X5215142Y15677619D01*
X5310380Y15725238D01*
X5358000Y15772857D01*
X5405619Y15868095D01*
X5405619Y16153809D01*
X5358000Y16249047D01*
X5310380Y16296666D01*
X5215142Y16344285D01*
X5024666Y16344285D01*
X4929428Y16296666D01*
M02*
